<svg xmlns="http://www.w3.org/2000/svg" xmlns:xlink="http://www.w3.org/1999/xlink" viewBox="0,0,256,256" width="50px" height="50px" fill-rule="nonzero"><g fill="#2563eb" fill-rule="nonzero" stroke="none" stroke-width="1" stroke-linecap="butt" stroke-linejoin="miter" stroke-miterlimit="10" stroke-dasharray="" stroke-dashoffset="0" font-family="none" font-weight="none" font-size="none" text-anchor="none" style="mix-blend-mode: normal"><g transform="scale(5.12,5.12)"><path d="M16.59375,4c-0.125,0 -0.23047,0.04688 -0.34375,0.09375l12.78125,18.96875l20.9375,6.8125c-0.01562,-0.14453 -0.04687,-0.27734 -0.125,-0.40625l-15.59375,-25c-0.18359,-0.29297 -0.5,-0.46875 -0.84375,-0.46875zM16.21875,4.09375c-0.19141,0.07813 -0.35547,0.19531 -0.46875,0.375l-15.59375,25c-0.18359,0.28906 -0.21484,0.66016 -0.0625,0.96875l7.8125,16c0.08203,0.17188 0.21875,0.30859 0.375,0.40625l12.4375,-24.40625zM8.28125,46.84375c0.15625,0.09766 0.33984,0.15625 0.53125,0.15625h31.5c0.36328,0 0.69922,-0.21094 0.875,-0.53125l8.6875,-16c0.09766,-0.18359 0.11719,-0.36328 0.09375,-0.5625l-25.34375,0.65625zM24.40625,20.4375l-4.5,7.625h9.40625z"></path></g></g></svg>